<svg width="19" height="20" viewBox="0 0 19 20" fill="none" xmlns="http://www.w3.org/2000/svg">
<g clip-path="url(#clip0_151_71)">
<path d="M0.0725002 11.3475C0.1444 11.1953 0.2661 11.0651 0.4223 10.9735C0.5785 10.8819 0.762201 10.833 0.950001 10.833L8.5497 10.833L8.5497 0.8333C8.5497 0.6123 8.6498 0.400301 8.8279 0.244101C9.0061 0.0878006 9.24772 0 9.49967 0C9.75161 0 9.99324 0.0878006 10.1714 0.244101C10.3495 0.400301 10.4496 0.6123 10.4496 0.8333L10.4496 10.833H18.0493C18.2373 10.8329 18.4211 10.8817 18.5775 10.9732C18.7338 11.0648 18.8557 11.1949 18.9276 11.3473C18.9996 11.4996 19.0184 11.6673 18.9817 11.829C18.945 11.9908 18.8544 12.1393 18.7214 12.2558L10.1718 19.7556C10.0835 19.8331 9.97877 19.8945 9.86344 19.9365C9.74812 19.9784 9.62451 20 9.49967 20C9.37483 20 9.25121 19.9784 9.13589 19.9365C9.02057 19.8945 8.9158 19.8331 8.8276 19.7556L0.277901 12.2558C0.145101 12.1392 0.0546999 11.9907 0.0181999 11.829C-0.0184001 11.6674 0.000500232 11.4998 0.0725002 11.3475Z" fill="#8D6CCF"/>
</g>
<defs>
<clipPath id="clip0_151_71">
<rect width="19" height="20" fill="white" transform="matrix(-1 0 0 -1 19 20)"/>
</clipPath>
</defs>
</svg>
