<svg width="19" height="20" viewBox="0 0 19 20" fill="none" xmlns="http://www.w3.org/2000/svg">
<path d="M18.9275 8.65246C18.8556 8.80473 18.7339 8.9349 18.5777 9.02649C18.4215 9.11808 18.2378 9.16699 18.05 9.16702H10.4503V19.1667C10.4503 19.3877 10.3502 19.5997 10.1721 19.7559C9.9939 19.9122 9.75228 20 9.50033 20C9.24839 20 9.00676 19.9122 8.82861 19.7559C8.65046 19.5997 8.55037 19.3877 8.55037 19.1667V9.16702H0.950707C0.762714 9.16715 0.578904 9.11835 0.422547 9.02679C0.266189 8.93524 0.144315 8.80505 0.0723536 8.6527C0.000391852 8.50035 -0.0184217 8.3327 0.0182946 8.17097C0.0550108 8.00923 0.145606 7.86069 0.278611 7.74415L8.82824 0.244397C8.91646 0.16692 9.02123 0.105456 9.13656 0.0635204C9.25188 0.0215848 9.37549 0 9.50033 0C9.62517 0 9.74879 0.0215848 9.86411 0.0635204C9.97943 0.105456 10.0842 0.16692 10.1724 0.244397L18.7221 7.74415C18.8549 7.86076 18.9453 8.00929 18.9818 8.17097C19.0184 8.33265 18.9995 8.50021 18.9275 8.65246Z" fill="#8D6CCF"/>
</svg>
