<svg width="32" height="32" viewBox="0 0 32 32" fill="none" xmlns="http://www.w3.org/2000/svg">
<g id="fa6-solid:book" clip-path="url(#clip0_39_566)">
<path id="Vector" d="M6.85714 0C3.07143 0 0 2.6875 0 6V26C0 29.3125 3.07143 32 6.85714 32H29.7143C30.9786 32 32 31.1063 32 30C32 28.8937 30.9786 28 29.7143 28V24C30.9786 24 32 23.1063 32 22V2C32 0.89375 30.9786 0 29.7143 0H27.4286H6.85714ZM6.85714 24H25.1429V28H6.85714C5.59286 28 4.57143 27.1063 4.57143 26C4.57143 24.8937 5.59286 24 6.85714 24ZM9.14286 9C9.14286 8.45 9.65714 8 10.2857 8H24C24.6286 8 25.1429 8.45 25.1429 9C25.1429 9.55 24.6286 10 24 10H10.2857C9.65714 10 9.14286 9.55 9.14286 9ZM10.2857 12H24C24.6286 12 25.1429 12.45 25.1429 13C25.1429 13.55 24.6286 14 24 14H10.2857C9.65714 14 9.14286 13.55 9.14286 13C9.14286 12.45 9.65714 12 10.2857 12Z" fill="url(#paint0_linear_39_566)"/>
</g>
<defs>
<linearGradient id="paint0_linear_39_566" x1="16" y1="0" x2="16" y2="32" gradientUnits="userSpaceOnUse">
<stop stop-color="#B098E0"/>
<stop offset="1" stop-color="#801EFF"/>
</linearGradient>
<clipPath id="clip0_39_566">
<rect width="32" height="32" fill="white"/>
</clipPath>
</defs>
</svg>
