<svg width="530" height="407" viewBox="0 0 530 407" fill="none" xmlns="http://www.w3.org/2000/svg">
<g clip-path="url(#clip0_133_71)">
<path d="M437.553 363.946C437.594 363.881 437.639 363.817 437.686 363.756C437.804 363.489 437.952 363.236 438.129 363.001L452.768 343.307L464.829 327.088H485.403L483.948 329.04L481.359 332.526L473.336 343.313L456.142 366.436L472.079 397.218C472.73 398.472 471.619 400.273 469.612 401.235L461.926 404.917C461.163 405.291 460.321 405.494 459.464 405.51C458.382 405.51 457.481 405.124 457.102 404.391L437.291 366.123C437.135 365.769 437.077 365.383 437.123 365.001C437.169 364.62 437.317 364.256 437.553 363.946Z" fill="url(#paint0_linear_133_71)"/>
<path d="M465.238 362.767L444.512 355.362C443.573 355.025 442.811 354.344 442.393 353.467C441.975 352.59 441.936 351.59 442.284 350.686L448.364 334.953C448.714 334.05 449.423 333.317 450.334 332.915C451.246 332.514 452.286 332.476 453.226 332.811L473.951 340.215C474.891 340.552 475.653 341.234 476.071 342.11C476.488 342.987 476.527 343.987 476.179 344.891L470.1 360.624C469.927 361.072 469.664 361.483 469.326 361.833C468.988 362.182 468.582 362.465 468.13 362.664C467.679 362.863 467.191 362.974 466.695 362.992C466.198 363.01 465.703 362.933 465.238 362.767Z" fill="#2F2E41"/>
<path d="M447.614 354.021C447.474 354.021 447.335 353.996 447.204 353.949C446.916 353.843 446.683 353.632 446.556 353.362C446.429 353.092 446.418 352.784 446.527 352.506L454.137 333.142C454.246 332.864 454.465 332.64 454.747 332.518C455.028 332.395 455.348 332.386 455.637 332.491C455.925 332.596 456.159 332.807 456.286 333.077C456.413 333.347 456.423 333.655 456.314 333.933L448.704 353.297C448.62 353.51 448.471 353.693 448.277 353.822C448.082 353.951 447.851 354.021 447.614 354.021Z" fill="white"/>
<path d="M481.056 402.628V332.688C481.054 332.623 481.059 332.558 481.069 332.494C481.104 331.682 481.385 330.898 481.877 330.239C482.37 329.579 483.052 329.072 483.84 328.78C484.343 328.589 484.879 328.491 485.42 328.492H494.008C495.165 328.493 496.274 328.936 497.092 329.722C497.91 330.509 498.37 331.576 498.372 332.688V402.628C498.37 403.741 497.91 404.807 497.092 405.594C496.274 406.381 495.165 406.823 494.008 406.824H485.42C484.263 406.823 483.154 406.381 482.336 405.594C481.518 404.807 481.057 403.741 481.056 402.628Z" fill="url(#paint1_linear_133_71)"/>
<path d="M476.396 358.978V342.194C476.397 341.23 476.796 340.305 477.505 339.623C478.214 338.942 479.175 338.558 480.178 338.557H502.287C503.29 338.558 504.251 338.942 504.96 339.623C505.669 340.305 506.068 341.23 506.069 342.194V358.978C506.068 359.942 505.669 360.867 504.96 361.548C504.251 362.23 503.29 362.614 502.287 362.615H480.178C479.175 362.614 478.214 362.23 477.505 361.548C476.796 360.867 476.397 359.942 476.396 358.978Z" fill="#2F2E41"/>
<path d="M493.312 360.843C493.004 360.843 492.708 360.725 492.49 360.515C492.272 360.305 492.149 360.021 492.149 359.724V339.024C492.149 338.727 492.271 338.442 492.49 338.233C492.708 338.023 493.004 337.905 493.312 337.905C493.621 337.905 493.917 338.023 494.135 338.233C494.353 338.442 494.476 338.727 494.476 339.024V359.724C494.476 360.021 494.353 360.305 494.135 360.515C493.917 360.725 493.621 360.843 493.312 360.843Z" fill="white"/>
<path d="M453.553 279.49L389.937 247.953C388.91 247.44 388.136 246.558 387.784 245.499C387.433 244.44 387.531 243.289 388.059 242.3L391.993 234.959C392.526 233.972 393.443 233.228 394.545 232.89C395.646 232.552 396.842 232.647 397.871 233.155L461.489 264.693C461.809 264.85 462.106 265.047 462.373 265.279C463.103 265.895 463.598 266.729 463.778 267.647C463.958 268.566 463.813 269.516 463.365 270.345L459.432 277.686C459.17 278.176 458.809 278.612 458.371 278.968C457.933 279.324 457.426 279.594 456.88 279.761C456.447 279.89 455.996 279.957 455.543 279.957C454.85 279.957 454.168 279.797 453.553 279.49Z" fill="url(#paint2_linear_133_71)"/>
<path d="M454.79 281.303L423.861 269.561C422.828 269.062 422.043 268.189 421.678 267.135C421.313 266.08 421.398 264.929 421.913 263.934L428.967 249.956C429.488 248.964 430.395 248.21 431.492 247.858C432.043 247.683 432.626 247.615 433.205 247.659C433.784 247.703 434.348 247.857 434.864 248.113L462.794 264.394C462.903 264.446 463.003 264.513 463.092 264.593C463.804 265.209 464.158 266.688 464.443 267.875L464.488 268.06C464.566 268.378 464.633 268.653 464.701 268.846L464.724 268.92C464.749 268.998 464.774 269.079 464.791 269.153C465.041 270.123 464.922 271.146 464.455 272.037L460.603 279.417C460.236 280.112 459.676 280.696 458.985 281.106C458.295 281.515 457.5 281.733 456.689 281.737C456.03 281.738 455.379 281.589 454.79 281.303Z" fill="#2F2E41"/>
<path d="M477.605 242.997C494.802 242.997 508.744 229.591 508.744 213.054C508.744 196.517 494.802 183.111 477.605 183.111C460.407 183.111 446.466 196.517 446.466 213.054C446.466 229.591 460.407 242.997 477.605 242.997Z" fill="url(#paint3_linear_133_71)"/>
<path d="M479.423 229.187L479.455 228.068C477.29 228.01 475.382 227.88 473.948 226.872C473.541 226.57 473.207 226.188 472.968 225.751C472.729 225.313 472.59 224.832 472.562 224.339C472.537 224.037 472.584 223.734 472.701 223.454C472.817 223.173 472.999 222.921 473.233 222.719C474.185 221.946 475.717 222.196 476.833 222.689L477.796 223.113L475.95 210.139L474.797 210.291L476.367 221.327C474.85 220.898 473.444 221.083 472.482 221.865C472.112 222.175 471.822 222.563 471.634 222.999C471.446 223.435 471.366 223.907 471.399 224.378C471.433 225.041 471.617 225.688 471.939 226.275C472.261 226.862 472.712 227.374 473.261 227.776C475.104 229.071 477.498 229.135 479.423 229.187Z" fill="#2F2E41"/>
<path d="M469.095 211.242H462.828V212.361H469.095V211.242Z" fill="#2F2E41"/>
<path d="M488.878 211.242H482.61V212.361H488.878V211.242Z" fill="#2F2E41"/>
<path d="M449.219 343.578C447.162 343.464 445.559 340.213 445.559 336.136V283.729C445.558 281.176 445.891 278.634 446.551 276.162L446.551 276.161C446.791 275.272 447.076 274.389 447.397 273.536C449.35 268.288 452.779 263.663 457.302 260.176C457.813 259.775 458.347 259.387 458.889 259.023C461.524 257.235 464.431 255.851 467.507 254.919C467.422 254.55 467.378 254.174 467.377 253.796C467.379 252.387 467.962 251.036 468.998 250.04C470.034 249.044 471.439 248.483 472.905 248.481H481.05C482.516 248.483 483.921 249.044 484.957 250.04C485.993 251.036 486.576 252.387 486.578 253.796C486.577 254.173 486.534 254.549 486.449 254.917C492.815 256.855 498.375 260.693 502.321 265.873C506.267 271.053 508.395 277.307 508.397 283.729V336.136C508.397 340.317 506.735 343.593 504.615 343.593H449.341C449.299 343.593 449.258 343.589 449.219 343.578Z" fill="#2F2E41"/>
<path d="M485.201 348.362C484.84 347.752 484.643 347.064 484.629 346.362L483.405 277.55C483.395 276.999 483.497 276.451 483.707 275.938C483.918 275.425 484.231 274.957 484.629 274.561L484.63 274.56C485.028 274.164 485.503 273.846 486.029 273.627C486.554 273.407 487.12 273.289 487.693 273.279L496.28 273.141C497.362 273.122 498.413 273.491 499.228 274.175C500.043 274.86 500.564 275.811 500.69 276.845C500.708 276.982 500.717 277.121 500.718 277.26L501.947 346.077C501.963 347.189 501.521 348.262 500.716 349.062C499.912 349.861 498.811 350.322 497.654 350.343L489.069 350.485C488.286 350.496 487.514 350.305 486.834 349.931C486.154 349.558 485.59 349.016 485.201 348.362Z" fill="url(#paint4_linear_133_71)"/>
<path d="M481.592 301.108C481.267 300.558 481.075 299.944 481.031 299.313L481.398 267.432C481.308 266.323 481.681 265.225 482.432 264.379C483.184 263.533 484.254 263.009 485.407 262.921L493.968 262.276C495.01 262.199 496.046 262.483 496.89 263.075C496.978 263.139 497.066 263.217 497.152 263.272C497.366 263.444 497.589 263.604 497.82 263.754L498.005 263.88C499.236 264.718 500.631 265.668 500.698 266.593L505.849 297.697C505.926 298.585 505.702 299.473 505.211 300.229C505.095 300.415 504.963 300.591 504.817 300.755C504.688 300.9 504.548 301.036 504.397 301.16C503.687 301.774 502.785 302.145 501.832 302.214L485.721 303.214C484.896 303.275 484.07 303.109 483.339 302.736C482.608 302.363 482.002 301.799 481.592 301.108Z" fill="#2F2E41"/>
<path d="M451.421 336.226C451.112 336.226 450.816 336.108 450.598 335.898C450.38 335.688 450.257 335.404 450.257 335.107V280.838C450.257 280.541 450.379 280.257 450.598 280.047C450.816 279.837 451.112 279.719 451.421 279.719C451.729 279.719 452.025 279.837 452.243 280.047C452.462 280.257 452.584 280.541 452.584 280.838V335.107C452.584 335.404 452.461 335.688 452.243 335.898C452.025 336.108 451.729 336.226 451.421 336.226Z" fill="white"/>
<path d="M505.846 205.941L451.751 186.912C451.464 186.811 451.2 186.657 450.975 186.458C450.75 186.259 450.568 186.019 450.44 185.753C450.311 185.486 450.238 185.198 450.225 184.904C450.212 184.611 450.26 184.317 450.365 184.041L450.548 183.209C454.773 172.105 468.775 165.116 480.324 169.179L496.97 175.034C508.518 179.097 513.538 192.246 509.313 203.351L508.831 204.608C508.619 205.166 508.186 205.619 507.626 205.869C507.066 206.119 506.426 206.145 505.846 205.941Z" fill="#2F2E41"/>
<path d="M508.76 206.997C433.362 209.672 426.774 200.562 449.747 186.238L454.621 177.615L510.476 197.196L508.76 206.997Z" fill="#2F2E41"/>
<path d="M493.976 173.668C494.392 172.337 492.609 170.644 489.993 169.888C487.378 169.132 484.92 169.599 484.503 170.93C484.087 172.262 485.87 173.954 488.486 174.711C491.102 175.467 493.56 175 493.976 173.668Z" fill="#2F2E41"/>
<path d="M164.999 0C110.938 0 66.9623 42.2858 66.9623 94.2702C66.9469 107.577 69.8771 120.734 75.5583 132.868C90.9226 165.659 125.228 188.54 164.999 188.54C190.996 188.526 215.924 178.59 234.306 160.914C252.688 143.238 263.022 119.268 263.036 94.2702C263.036 42.2859 219.053 0 164.999 0ZM246.111 132.167C238.708 146.797 227.178 159.132 212.837 167.766C198.496 176.4 181.92 180.985 164.999 180.999C126.781 180.999 94.0363 158.019 80.9307 125.673C76.869 115.665 74.7914 105.014 74.8053 94.2702C74.8053 46.4488 115.267 7.54162 164.999 7.54162C214.732 7.54162 255.193 46.4487 255.193 94.2702C255.21 107.403 252.104 120.366 246.111 132.167Z" fill="#E6E6E6"/>
<path d="M164.999 188.82C146.429 188.806 128.242 183.741 112.538 174.211C96.834 164.681 84.2533 151.074 76.2487 134.961C75.9291 134.319 75.7904 133.607 75.8463 132.897C75.9022 132.187 76.1508 131.503 76.5673 130.914L76.6198 130.84C77.0357 130.261 77.6027 129.797 78.264 129.495C78.9252 129.193 79.6575 129.064 80.3872 129.12C81.1169 129.176 81.8184 129.416 82.4214 129.815C83.0243 130.214 83.5074 130.759 83.8222 131.394C98.6959 161.358 130.56 180.719 164.999 180.719C180.738 180.681 196.192 176.686 209.83 169.131C223.467 161.577 234.813 150.725 242.743 137.653C243.112 137.039 243.643 136.53 244.282 136.177C244.922 135.825 245.647 135.641 246.385 135.645C247.114 135.644 247.831 135.829 248.461 136.182C249.091 136.535 249.612 137.044 249.97 137.655L250.016 137.733C250.379 138.349 250.568 139.047 250.564 139.756C250.56 140.464 250.363 141.16 249.994 141.773C241.318 156.057 228.911 167.912 214.003 176.165C199.094 184.417 182.202 188.78 164.999 188.82Z" fill="url(#paint5_linear_133_71)"/>
<path d="M142.903 102.892C145.567 102.876 148.155 103.749 150.225 105.363C152.295 106.977 153.718 109.232 154.251 111.742C154.784 114.253 154.395 116.864 153.149 119.129C151.904 121.394 149.879 123.173 147.421 124.163C144.963 125.152 142.224 125.291 139.671 124.555C137.119 123.819 134.911 122.253 133.425 120.126C131.94 117.999 131.268 115.442 131.524 112.892C131.781 110.341 132.95 107.955 134.832 106.141C135.887 105.114 137.143 104.297 138.529 103.739C139.914 103.182 141.401 102.894 142.903 102.892ZM142.903 98.179C139.67 98.1773 136.51 99.0973 133.822 100.823C131.133 102.548 129.037 105.001 127.799 107.872C126.56 110.743 126.235 113.902 126.864 116.951C127.493 120 129.047 122.8 131.332 124.999C133.616 127.198 136.527 128.696 139.697 129.304C142.867 129.912 146.153 129.603 149.14 128.415C152.127 127.227 154.68 125.214 156.477 122.631C158.274 120.048 159.235 117.01 159.236 113.902C159.239 109.734 157.519 105.736 154.456 102.788C151.393 99.839 147.237 98.1812 142.903 98.179ZM176.953 75.7056C178.431 75.7128 179.852 75.1551 180.903 74.155C181.953 73.155 182.548 71.7946 182.555 70.3731C182.555 70.355 182.555 70.3369 182.555 70.3188C182.562 69.6224 182.426 68.9316 182.155 68.2857C181.885 67.6398 181.484 67.0515 180.977 66.5544C180.47 66.0573 179.866 65.6612 179.199 65.3886C178.533 65.1159 177.817 64.9722 177.093 64.9656C177.058 64.9653 177.023 64.9653 176.988 64.9656C175.507 64.9521 174.081 65.505 173.024 66.5026C171.967 67.5001 171.365 68.8607 171.351 70.2849C171.337 71.7091 171.912 73.0803 172.949 74.0968C173.987 75.1134 175.402 75.692 176.883 75.7054C176.906 75.7056 176.93 75.7057 176.953 75.7056ZM188.665 102.892C191.33 102.876 193.918 103.749 195.987 105.363C198.057 106.977 199.48 109.232 200.013 111.742C200.547 114.253 200.157 116.864 198.912 119.129C197.666 121.394 195.641 123.173 193.183 124.163C190.725 125.152 187.986 125.291 185.434 124.555C182.881 123.819 180.674 122.253 179.188 120.126C177.702 117.999 177.03 115.442 177.286 112.892C177.543 110.341 178.712 107.955 180.594 106.141C181.649 105.114 182.906 104.297 184.291 103.739C185.676 103.182 187.163 102.894 188.665 102.892ZM188.665 98.179C185.434 98.179 182.276 99.1001 179.59 100.826C176.904 102.552 174.811 105.005 173.575 107.875C172.338 110.745 172.015 113.902 172.645 116.949C173.275 119.996 174.831 122.794 177.115 124.991C179.4 127.187 182.31 128.683 185.478 129.289C188.647 129.895 191.931 129.584 194.916 128.396C197.9 127.207 200.451 125.194 202.246 122.611C204.041 120.028 204.999 116.991 204.999 113.885C204.999 111.822 204.576 109.78 203.755 107.875C202.934 105.969 201.731 104.238 200.215 102.779C198.698 101.321 196.897 100.164 194.916 99.3745C192.934 98.5852 190.81 98.179 188.665 98.179Z" fill="#E6E6E6"/>
<path d="M185.391 86.5131H176.988L171.824 76.3959C171.407 75.6864 170.825 75.0796 170.123 74.6232C169.421 74.1667 168.618 73.8731 167.778 73.7654C166.938 73.6578 166.084 73.7389 165.282 74.0026C164.481 74.2662 163.753 74.7051 163.158 75.2848L150.606 86.9171C149.578 87.9256 148.995 89.2763 148.977 90.6879C148.977 93.617 151.183 94.6608 152.216 95.2499C160.182 99.6604 162.983 100.149 162.983 102.354V113.447C162.983 114.162 163.278 114.847 163.803 115.352C164.328 115.857 165.041 116.141 165.784 116.141C166.527 116.141 167.239 115.857 167.764 115.352C168.29 114.847 168.585 114.162 168.585 113.447V98.2969C168.585 96.0748 163.263 94.2567 160.129 91.9L168.69 83.2305C171.964 88.0282 173.469 91.9 175.342 91.9H185.391C186.134 91.9011 186.847 91.6185 187.373 91.1142C187.899 90.6099 188.196 89.9252 188.197 89.2109C188.198 88.4965 187.904 87.811 187.38 87.3051C186.855 86.7991 186.143 86.5143 185.4 86.5131L185.391 86.5131Z" fill="#E6E6E6"/>
<path d="M86.1439 239.376C83.7309 239.376 81.7331 246.131 81.3459 254.989H34.9253C34.5381 246.131 32.5404 239.376 30.1273 239.376C27.4372 239.376 25.2563 247.764 25.2563 258.111C25.2563 268.458 27.4372 276.846 30.1273 276.846C32.5404 276.846 34.5381 270.091 34.9253 261.234H81.3459C81.7331 270.091 83.7309 276.846 86.1438 276.846C88.834 276.846 91.0148 268.458 91.0148 258.111C91.0148 247.764 88.834 239.376 86.1439 239.376Z" fill="#E6E6E6"/>
<path d="M108.756 230.449C101.876 218.592 90.7363 209.552 77.4238 205.023C64.1113 200.494 49.5385 200.786 36.434 205.845C23.3296 210.904 12.592 220.383 6.23198 232.506C-0.128065 244.629 -1.67449 258.566 1.88227 271.707C5.43903 284.848 13.8551 296.291 25.5545 303.895C37.254 311.498 51.4346 314.741 65.4411 313.015C79.4477 311.288 92.3197 304.712 101.647 294.517C110.974 284.322 116.117 271.208 116.113 257.629C116.109 248.115 113.577 238.759 108.756 230.449ZM58.0433 308.995C43.969 308.926 30.4977 303.493 20.584 293.886C10.6702 284.28 5.12326 271.284 5.15968 257.751C5.19609 244.217 10.8129 231.25 20.7782 221.693C30.7436 212.136 44.2439 206.769 58.3183 206.77C72.3927 206.771 85.8923 212.139 95.8564 221.698C105.82 231.256 111.435 244.224 111.47 257.757C111.505 271.291 105.956 284.285 96.0408 293.891C86.1258 303.496 72.6538 308.928 58.5795 308.995C58.4008 308.996 58.222 308.996 58.0433 308.995Z" fill="#E6E6E6"/>
<path d="M58.0714 313.748C47.0069 313.753 36.1698 310.727 26.8288 305.024C26.3622 304.738 26.0022 304.317 25.8006 303.822L25.7713 303.749C25.5685 303.258 25.5352 302.718 25.6762 302.207C25.8172 301.697 26.1251 301.243 26.5545 300.914C26.9695 300.578 27.4858 300.38 28.027 300.348C28.5682 300.316 29.1058 300.453 29.5602 300.737C39.4888 306.814 51.2356 309.547 62.9552 308.508C74.6747 307.468 85.703 302.713 94.3074 294.992C102.912 287.27 108.605 277.019 110.492 265.848C112.379 254.678 110.354 243.221 104.734 233.277C104.47 232.821 104.366 232.296 104.436 231.779C104.507 231.262 104.748 230.78 105.125 230.405C105.497 230.016 105.989 229.752 106.529 229.652C107.069 229.552 107.628 229.622 108.124 229.85L108.196 229.883C108.694 230.107 109.104 230.477 109.369 230.939C114.179 239.482 116.6 249.08 116.395 258.792C116.189 268.505 113.364 278 108.195 286.347C103.027 294.695 95.6932 301.608 86.9115 306.412C78.1298 311.215 68.2015 313.742 58.0986 313.748H58.0714Z" fill="url(#paint6_linear_133_71)"/>
<path d="M271.929 201.802C264.302 201.798 256.749 203.24 249.701 206.044C242.654 208.848 236.25 212.96 230.855 218.144C225.46 223.328 221.18 229.484 218.26 236.259C215.339 243.034 213.835 250.296 213.834 257.629C213.833 264.963 215.334 272.226 218.252 279.002C221.17 285.778 225.447 291.935 230.84 297.121C236.233 302.307 242.635 306.421 249.682 309.228C256.728 312.034 264.281 313.478 271.908 313.478H271.929C272.305 313.478 272.674 313.478 273.05 313.463C288.351 313.179 302.917 307.099 313.581 296.544C324.245 285.989 330.145 271.813 329.997 257.098C329.849 242.383 323.666 228.319 312.792 217.964C301.918 207.609 287.233 201.801 271.929 201.802ZM283.764 307.731C276.434 309.332 268.836 309.427 261.465 308.011C254.095 306.594 247.118 303.698 240.991 299.512C234.863 295.326 229.724 289.944 225.908 283.717C222.092 277.49 219.685 270.559 218.845 263.377C218.005 256.195 218.751 248.923 221.033 242.037C223.316 235.151 227.084 228.805 232.091 223.415C237.098 218.025 243.232 213.711 250.091 210.756C256.951 207.801 264.381 206.271 271.897 206.266H271.929C285.067 206.265 297.745 210.92 307.539 219.34C317.334 227.76 323.558 239.356 325.022 251.911C326.487 264.465 323.089 277.099 315.477 287.396C307.866 297.694 296.576 304.933 283.764 307.731Z" fill="#E6E6E6"/>
<path d="M271.929 313.757C257.527 313.757 243.633 308.636 232.92 299.379C222.208 290.122 215.434 277.384 213.9 263.613C212.367 249.843 216.183 236.014 224.614 224.786C233.046 213.558 245.497 205.725 259.573 202.792C259.919 202.721 260.277 202.717 260.625 202.779L260.746 202.801C261.33 202.91 261.857 203.21 262.238 203.649C262.619 204.088 262.831 204.64 262.838 205.212C262.845 205.784 262.647 206.341 262.276 206.788C261.906 207.236 261.386 207.547 260.805 207.669C247.974 210.314 236.614 217.431 228.915 227.649C221.215 237.867 217.719 250.464 219.102 263.012C220.484 275.56 226.646 287.173 236.401 295.613C246.156 304.053 258.814 308.724 271.937 308.726C272.45 308.721 272.949 308.719 273.456 308.705C274.021 308.682 274.576 308.852 275.024 309.183C275.472 309.515 275.785 309.988 275.906 310.519C276.04 311.032 275.981 311.574 275.739 312.049C275.497 312.524 275.088 312.901 274.585 313.114C274.243 313.264 273.899 313.413 273.554 313.558C273.264 313.681 272.951 313.748 272.633 313.754C272.399 313.757 272.165 313.757 271.929 313.757Z" fill="url(#paint7_linear_133_71)"/>
<path d="M300.576 255.265C299.029 255.191 297.499 255.605 296.22 256.445C294.94 257.284 293.982 258.504 293.49 259.916H287.771L283.596 247.844C283.442 247.391 283.142 246.998 282.741 246.718C282.34 246.439 281.857 246.289 281.362 246.289H281.318C280.815 246.296 280.329 246.46 279.931 246.756C279.534 247.051 279.246 247.463 279.113 247.929L272.571 269.882L264.882 225.48C264.793 224.966 264.522 224.498 264.116 224.153C263.71 223.808 263.193 223.608 262.651 223.586C262.11 223.565 261.577 223.723 261.143 224.034C260.708 224.346 260.399 224.791 260.266 225.297L252.474 259.916H243.742C243.118 259.916 242.519 260.154 242.078 260.579C241.637 261.003 241.389 261.578 241.389 262.178C241.389 262.778 241.637 263.353 242.078 263.777C242.519 264.202 243.118 264.44 243.742 264.44H254.326C254.85 264.441 255.359 264.272 255.773 263.962C256.186 263.652 256.479 263.218 256.605 262.729L262.103 236.973L269.645 280.499C269.731 281.006 269.996 281.469 270.394 281.811C270.793 282.153 271.302 282.354 271.835 282.379H271.968C272.479 282.378 272.976 282.218 273.384 281.922C273.793 281.626 274.09 281.211 274.232 280.739L281.538 256.198L283.846 262.885C284.004 263.336 284.304 263.728 284.704 264.007C285.105 264.286 285.586 264.437 286.081 264.44H293.593C294.042 265.584 294.804 266.589 295.799 267.351C296.794 268.113 297.984 268.602 299.243 268.767C300.503 268.932 301.786 268.767 302.956 268.289C304.127 267.811 305.141 267.037 305.892 266.051C306.643 265.064 307.102 263.901 307.223 262.684C307.343 261.466 307.119 260.241 306.574 259.136C306.03 258.031 305.185 257.088 304.129 256.407C303.073 255.726 301.846 255.331 300.576 255.265Z" fill="#E6E6E6"/>
<path d="M529.418 407H422.943C422.788 407 422.64 406.941 422.531 406.836C422.422 406.731 422.361 406.589 422.361 406.441C422.361 406.292 422.422 406.15 422.531 406.045C422.64 405.94 422.788 405.881 422.943 405.881H529.418C529.572 405.881 529.72 405.94 529.829 406.045C529.939 406.15 530 406.292 530 406.441C530 406.589 529.939 406.731 529.829 406.836C529.72 406.941 529.572 407 529.418 407Z" fill="#3F3D56"/>
</g>
<defs>
<linearGradient id="paint0_linear_133_71" x1="461.255" y1="327.088" x2="461.255" y2="405.51" gradientUnits="userSpaceOnUse">
<stop stop-color="#B098E0"/>
<stop offset="1" stop-color="#801EFF"/>
</linearGradient>
<linearGradient id="paint1_linear_133_71" x1="489.714" y1="328.492" x2="489.714" y2="406.824" gradientUnits="userSpaceOnUse">
<stop stop-color="#B098E0"/>
<stop offset="1" stop-color="#801EFF"/>
</linearGradient>
<linearGradient id="paint2_linear_133_71" x1="425.715" y1="232.691" x2="425.715" y2="279.957" gradientUnits="userSpaceOnUse">
<stop stop-color="#B098E0"/>
<stop offset="1" stop-color="#801EFF"/>
</linearGradient>
<linearGradient id="paint3_linear_133_71" x1="477.605" y1="183.111" x2="477.605" y2="242.997" gradientUnits="userSpaceOnUse">
<stop stop-color="#B098E0"/>
<stop offset="1" stop-color="#801EFF"/>
</linearGradient>
<linearGradient id="paint4_linear_133_71" x1="492.676" y1="273.14" x2="492.676" y2="350.485" gradientUnits="userSpaceOnUse">
<stop stop-color="#B098E0"/>
<stop offset="1" stop-color="#801EFF"/>
</linearGradient>
<linearGradient id="paint5_linear_133_71" x1="163.199" y1="129.107" x2="163.199" y2="188.82" gradientUnits="userSpaceOnUse">
<stop stop-color="#B098E0"/>
<stop offset="1" stop-color="#801EFF"/>
</linearGradient>
<linearGradient id="paint6_linear_133_71" x1="70.9985" y1="229.607" x2="70.9985" y2="313.748" gradientUnits="userSpaceOnUse">
<stop stop-color="#B098E0"/>
<stop offset="1" stop-color="#801EFF"/>
</linearGradient>
<linearGradient id="paint7_linear_133_71" x1="244.772" y1="202.735" x2="244.772" y2="313.757" gradientUnits="userSpaceOnUse">
<stop stop-color="#B098E0"/>
<stop offset="1" stop-color="#801EFF"/>
</linearGradient>
<clipPath id="clip0_133_71">
<rect width="530" height="407" fill="white"/>
</clipPath>
</defs>
</svg>
