<svg width="32" height="32" viewBox="0 0 32 32" fill="none" xmlns="http://www.w3.org/2000/svg">
<path d="M28.8778 12.9758C28.8778 12.7276 28.8274 12.4818 28.7293 12.2525C28.6313 12.0231 28.4875 11.8148 28.3064 11.6392C28.1252 11.4637 27.9101 11.3245 27.6733 11.2295C27.4366 11.1345 27.1829 11.0856 26.9267 11.0856C26.6704 11.0856 26.4167 11.1345 26.18 11.2295C25.9432 11.3245 25.7281 11.4637 25.547 11.6392C25.3658 11.8148 25.222 12.0231 25.124 12.2525C25.0259 12.4818 24.9755 12.7276 24.9755 12.9758H28.8778ZM7.02454 12.9758C7.02454 12.4745 6.81896 11.9937 6.45305 11.6392C6.08713 11.2847 5.59083 11.0856 5.07335 11.0856C4.55586 11.0856 4.05957 11.2847 3.69365 11.6392C3.32773 11.9937 3.12216 12.4745 3.12216 12.9758H7.02454ZM28.6687 17.3369C29.0346 17.6915 29.531 17.8906 30.0486 17.8906C30.5661 17.8906 31.0625 17.6915 31.4284 17.3369C31.7944 16.9824 32 16.5016 32 16.0002C32 15.4988 31.7944 15.0179 31.4284 14.6634L28.6687 17.3369ZM16 2.39057L17.3799 1.05381C17.1987 0.878233 16.9836 0.738956 16.7468 0.643932C16.51 0.548908 16.2563 0.5 16 0.5C15.7437 0.5 15.49 0.548908 15.2532 0.643932C15.0164 0.738956 14.8013 0.878233 14.6201 1.05381L16 2.39057ZM0.571565 14.6634C0.205598 15.0179 0 15.4988 0 16.0002C0 16.5016 0.205598 16.9824 0.571565 17.3369C0.937532 17.6915 1.43389 17.8906 1.95145 17.8906C2.469 17.8906 2.96536 17.6915 3.33133 17.3369L0.571565 14.6634ZM8.19525 31.5H23.8048V27.7196H8.19525V31.5ZM28.8778 26.5854V12.9758H24.9755V26.5854H28.8778ZM7.02454 26.5854V12.9758H3.12216V26.5854H7.02454ZM31.4284 14.6634L17.3799 1.05381L14.6201 3.72734L28.6687 17.3369L31.4284 14.6634ZM14.6201 1.05381L0.571565 14.6634L3.33133 17.3369L17.3799 3.72734L14.6201 1.05381ZM23.8048 31.5C25.1502 31.5 26.4406 30.9822 27.392 30.0606C28.3434 29.1389 28.8778 27.8888 28.8778 26.5854H24.9755C24.9755 26.8862 24.8521 27.1747 24.6326 27.3874C24.413 27.6001 24.1152 27.7196 23.8048 27.7196V31.5ZM8.19525 27.7196C7.88476 27.7196 7.58698 27.6001 7.36743 27.3874C7.14788 27.1747 7.02454 26.8862 7.02454 26.5854H3.12216C3.12216 27.8888 3.65664 29.1389 4.60803 30.0606C5.55942 30.9822 6.84978 31.5 8.19525 31.5V27.7196Z" fill="#FFFFF2"/>
</svg>
