<svg width="32" height="32" viewBox="0 0 32 32" fill="none" xmlns="http://www.w3.org/2000/svg">
<path d="M0 0L0 16.4324C0 19.0559 0.48 21.4775 1.44 23.6973C2.4 25.9171 3.72 27.8198 5.4 29.4054C4.70667 28.3099 4.16693 27.1066 3.7808 25.7955C3.39467 24.4843 3.20107 23.093 3.2 21.6216C3.2 19.4883 3.60693 17.261 4.4208 14.9397C5.23467 12.6184 6.58773 9.93038 8.48 6.87568L0 0ZM16 1.6C12.4533 6.21261 9.96693 10.1841 8.5408 13.5144C7.11467 16.8447 6.40107 19.5471 6.4 21.6216C6.4 24.5045 7.33333 26.955 9.2 28.973C11.0667 30.991 13.3333 32 16 32C18.6667 32 20.9333 30.991 22.8 28.973C24.6667 26.955 25.6 24.5045 25.6 21.6216C25.6 19.5459 24.88 16.8291 23.44 13.4711C22 10.1132 19.52 6.15726 16 1.6ZM32 0L23.52 6.87568C25.4133 9.93153 26.7669 12.6201 27.5808 14.9414C28.3947 17.2627 28.8011 19.4894 28.8 21.6216C28.8 23.0919 28.6064 24.4832 28.2192 25.7955C27.832 27.1077 27.2928 28.3111 26.6016 29.4054C28.2816 27.8198 29.6016 25.9171 30.5616 23.6973C31.5216 21.4775 32.0011 19.0559 32 16.4324V0Z" fill="#FFFFF2"/>
</svg>
