<svg width="24" height="24" viewBox="0 0 24 24" fill="none" xmlns="http://www.w3.org/2000/svg">
<path d="M22.11 21.46L2.38999 1.72998L1.10999 2.99998L4.05999 5.94998C2.72671 7.68525 2.00267 9.81165 1.99999 12C1.99999 17.5 6.49999 22 12 22C14.28 22 16.37 21.23 18.05 19.94L20.84 22.73L22.11 21.46ZM12 20C7.57999 20 3.99999 16.42 3.99999 12C3.99999 10.27 4.55999 8.67998 5.49999 7.37998L16.62 18.5C15.2795 19.4802 13.6606 20.0059 12 20ZM8.16999 4.96998L6.71999 3.49998C8.24998 2.55998 10.06 1.99998 12 1.99998C17.5 1.99998 22 6.49998 22 12C22 13.94 21.44 15.75 20.5 17.28L19.03 15.83C19.65 14.69 20 13.39 20 12C20 7.57998 16.42 3.99998 12 3.99998C10.61 3.99998 9.30999 4.34998 8.16999 4.96998Z" fill="#8D6CCF"/>
</svg>
