<svg width="32" height="32" viewBox="0 0 32 32" fill="none" xmlns="http://www.w3.org/2000/svg">
<path d="M28.5657 19.1078L28.4217 17.6605L28.3737 17.6648L28.3271 17.6735L28.5657 19.1078ZM28.5657 19.1078L28.7111 20.5551L28.7591 20.5508L28.8057 20.5435L28.5657 19.1078ZM22.689 27.082L23.6098 25.9561L23.5982 25.9474L22.689 27.082ZM22.689 27.082L21.7683 28.2078L21.7799 28.218L22.689 27.082ZM9.31244 27.082L8.39168 25.9576L8.3684 25.9765L8.34658 25.9954L9.31244 27.082ZM9.31244 27.082L10.2332 28.2093L10.2565 28.1904L10.2783 28.17L9.31244 27.082ZM3.43436 12.8937V11.4391H3.36163L3.29036 11.4464L3.43436 12.8937ZM3.43436 12.8937V14.3483H3.5071L3.57983 14.341L3.43436 12.8937ZM20.5551 3.2889C20.5308 3.00915 20.4964 2.73021 20.4548 2.4525C20.4094 2.14693 20.3161 1.85043 20.1784 1.57392L17.5935 2.90925C17.5601 2.84379 17.5674 2.82052 17.5863 2.93543C17.6081 3.06489 17.627 3.24527 17.6605 3.57983L20.5551 3.2889ZM20.6933 4.67078C20.785 4.79006 20.7544 4.84388 20.7035 4.56023C20.6555 4.28968 20.6177 3.91002 20.5551 3.2889L17.659 3.57837C17.7172 4.15149 17.7666 4.66642 17.8408 5.07662C17.9121 5.46936 18.0372 5.98575 18.379 6.43377L20.6933 4.67078ZM20.6933 4.67078L18.379 6.43377C18.6903 6.84229 19.1042 7.16112 19.5787 7.35785C20.0531 7.55457 20.5712 7.62219 21.0802 7.55382L20.6933 4.67078ZM21.7668 3.79074C21.4408 4.06626 21.1056 4.33066 20.7617 4.58351C20.5246 4.74788 20.5435 4.68969 20.6933 4.67078L21.0802 7.55382C21.6388 7.47818 22.0926 7.20181 22.4214 6.97198C22.7632 6.73633 23.1632 6.40759 23.6084 6.04248L21.7668 3.79074ZM23.2447 2.84525C22.9521 2.9431 22.6767 3.08644 22.4287 3.26999C22.225 3.41545 21.9966 3.6031 21.7668 3.79074L23.6084 6.04248C23.8687 5.83011 24.0098 5.71519 24.1175 5.63955C24.212 5.57119 24.1989 5.59446 24.1306 5.61628L23.2447 2.84525ZM25.287 2.94707C24.641 2.66712 23.9154 2.63095 23.2447 2.84525L24.1306 5.61628L25.287 2.94707ZM26.663 4.03512C26.4673 3.83364 26.265 3.63862 26.0565 3.45037C25.8275 3.24313 25.5674 3.07328 25.2855 2.94707L24.1306 5.61628C24.0636 5.58719 24.0535 5.56391 24.1407 5.64101C24.2397 5.72828 24.3691 5.85484 24.6062 6.09194L26.663 4.03512ZM27.9635 5.33554L26.663 4.03512L24.6062 6.09194L25.9066 7.39236L27.9635 5.33554ZM29.0515 6.7116C28.9253 6.42977 28.7554 6.1696 28.5482 5.94066C28.3596 5.73299 28.1645 5.53119 27.9635 5.33554L25.9066 7.39381C26.1437 7.63092 26.2703 7.76038 26.3576 7.85929C26.4347 7.94657 26.4114 7.93638 26.3823 7.86947L29.0515 6.7116ZM29.1533 8.75387C29.3676 8.08322 29.3315 7.35761 29.0515 6.7116L26.3823 7.86947L29.1533 8.75387ZM28.2078 10.2318C28.3888 10.0171 28.5625 9.79635 28.7286 9.56991C28.8828 9.35463 29.0486 9.08698 29.1533 8.75387L26.3823 7.86947C26.4041 7.8011 26.4259 7.78656 26.359 7.88256C26.2834 7.98875 26.1699 8.12985 25.9561 8.39022L28.2078 10.2318ZM27.3278 11.3067C27.3089 11.4565 27.2507 11.474 27.4151 11.2369C27.5707 11.0114 27.8122 10.7147 28.2078 10.2318L25.9561 8.39022C25.5924 8.83533 25.2622 9.23535 25.0251 9.57718C24.7968 9.90593 24.5204 10.3598 24.4448 10.9183L27.3278 11.3067ZM27.3278 11.3067L24.4448 10.9183C24.3764 11.4274 24.444 11.9454 24.6407 12.4199C24.8375 12.8943 25.1563 13.3082 25.5648 13.6195L27.3278 11.3067ZM28.7097 11.4449C28.2843 11.4093 27.8603 11.3593 27.4383 11.2951C27.1547 11.2442 27.2085 11.2151 27.3278 11.3067L25.5648 13.6195C26.0128 13.9614 26.5278 14.0865 26.9234 14.1578C27.3322 14.2305 27.8471 14.2814 28.4202 14.3396L28.7097 11.4449ZM30.4247 11.8202C30.1481 11.6825 29.8516 11.5892 29.5461 11.5438C29.2684 11.5022 28.9894 11.4692 28.7097 11.4449L28.4202 14.3396C28.6356 14.3586 28.8504 14.3828 29.0646 14.4123C29.181 14.4327 29.1562 14.4399 29.0908 14.4065L30.4247 11.8202ZM31.7964 13.3373C31.5378 12.6823 31.0505 12.1432 30.4247 11.8202L29.0922 14.4094L31.7964 13.3373ZM32 15.08C32 14.7832 32 14.4879 31.984 14.2378C31.9689 13.9291 31.905 13.6247 31.7949 13.3359L29.0922 14.4094C29.0661 14.341 29.0748 14.3178 29.0835 14.4341C29.0922 14.565 29.0922 14.7469 29.0922 15.0829L32 15.08ZM32 16.9186V15.08H29.0908V16.9186H32ZM31.7964 18.6612C31.9244 18.3368 31.9665 18.0256 31.984 17.7594C32 17.5106 32 17.2153 32 16.9186H29.0908C29.0908 17.2546 29.0908 17.4364 29.0821 17.5674C29.0733 17.6837 29.0646 17.6605 29.0908 17.5921L31.7964 18.6612ZM30.4247 20.1784C31.0505 19.8554 31.5378 19.3163 31.7964 18.6612L29.0922 17.5935L30.4247 20.1784ZM28.7097 20.5537C29.0064 20.5246 29.2988 20.4955 29.5461 20.4548C29.8079 20.4111 30.1134 20.3384 30.4247 20.1784L29.0922 17.5935C29.1562 17.5601 29.181 17.5674 29.0661 17.5863C28.852 17.6172 28.6371 17.642 28.4217 17.6605L28.7097 20.5537ZM27.3292 20.6919C27.2085 20.7835 27.1547 20.7544 27.4383 20.7035C27.7089 20.6555 28.0886 20.6162 28.7097 20.5537L28.4202 17.659C27.8485 17.7172 27.3322 17.7666 26.9234 17.8408C26.5292 17.9121 26.0128 18.0372 25.5648 18.379L27.3292 20.6919ZM27.3292 20.6919L25.5648 18.379C25.1563 18.6903 24.8375 19.1042 24.6407 19.5787C24.444 20.0531 24.3764 20.5712 24.4448 21.0802L27.3292 20.6919ZM28.2078 21.7654C27.9324 21.4398 27.668 21.105 27.4151 20.7617C27.2507 20.5246 27.3103 20.542 27.3292 20.6919L24.4448 21.0802C24.5204 21.6388 24.7968 22.0926 25.0266 22.4214C25.2637 22.7632 25.5924 23.1632 25.9561 23.6084L28.2078 21.7654ZM29.1533 23.2432C29.0553 22.9511 28.912 22.6762 28.7286 22.4287C28.5831 22.2236 28.3955 21.9966 28.2078 21.7654L25.9561 23.6084C26.1685 23.8687 26.2834 24.0084 26.359 24.116C26.4274 24.2106 26.4056 24.1989 26.3823 24.1306L29.1533 23.2432ZM29.0515 25.287C29.3318 24.6405 29.368 23.9143 29.1533 23.2432L26.3823 24.1306L29.0515 25.287ZM27.9635 26.663C28.1744 26.4521 28.3824 26.2456 28.5482 26.0565C28.7228 25.8557 28.9119 25.607 29.0515 25.2855L26.3823 24.1291C26.4114 24.0622 26.4347 24.0535 26.3576 24.1407C26.2703 24.2397 26.1437 24.3677 25.9066 24.6062L27.9635 26.663ZM26.663 27.962L27.9635 26.663L25.9066 24.6062L24.6062 25.9052L26.663 27.962ZM25.287 29.0515C25.5689 28.9249 25.8291 28.7545 26.0579 28.5468C26.2456 28.3824 26.4536 28.1729 26.663 27.962L24.6062 25.9052C24.4553 26.0598 24.3001 26.2102 24.1407 26.3561C24.0535 26.4347 24.0636 26.4114 24.1306 26.3823L25.287 29.0515ZM23.2447 29.1533C23.9154 29.3676 24.641 29.3315 25.287 29.0515L24.1306 26.3823L23.2447 29.1533ZM21.7668 28.2078C21.9966 28.3955 22.2236 28.5831 22.4287 28.7286C22.6439 28.8813 22.9116 29.0471 23.2447 29.1533L24.1306 26.3823C24.1989 26.4041 24.212 26.4259 24.116 26.359C23.943 26.2296 23.7737 26.0952 23.6084 25.9561L21.7668 28.2078ZM20.6933 27.3292C20.5435 27.3074 20.5246 27.2492 20.7617 27.4136C20.9871 27.5707 21.2824 27.8107 21.7654 28.2064L23.6084 25.9561C23.1632 25.591 22.7632 25.2622 22.4214 25.0251C22.0926 24.7953 21.6388 24.5204 21.0802 24.4448L20.6933 27.3292ZM20.6933 27.3292L21.0802 24.4448C20.5712 24.3764 20.0531 24.444 19.5787 24.6407C19.1042 24.8375 18.6903 25.1563 18.379 25.5648L20.6933 27.3292ZM20.5537 28.7097C20.6162 28.0886 20.6555 27.7074 20.7035 27.4383C20.7544 27.1547 20.7835 27.2071 20.6919 27.3278L18.379 25.5634C18.0372 26.0114 17.9121 26.5278 17.8408 26.922C17.7681 27.3322 17.7186 27.8471 17.6605 28.4202L20.5537 28.7097ZM20.1769 30.4247C20.3369 30.1134 20.4097 29.8079 20.4533 29.5461C20.4969 29.2988 20.5231 29.0064 20.5537 28.7097L17.6605 28.4202C17.641 28.6361 17.6158 28.85 17.5848 29.0646C17.5659 29.181 17.5586 29.1562 17.5921 29.0908L20.1769 30.4247ZM18.6627 31.7964C19.3167 31.5372 19.8546 31.0499 20.1769 30.4247L17.5935 29.0922L18.6627 31.7964ZM16.9171 32C17.2153 32 17.5106 32 17.7608 31.984C18.0256 31.9665 18.3368 31.9273 18.6627 31.7964L17.5935 29.0922C17.6619 29.0661 17.6852 29.0748 17.5688 29.0835C17.3527 29.0926 17.1363 29.0955 16.9201 29.0922L16.9171 32ZM15.08 32H16.9171L16.9186 29.0908H15.08V32ZM13.3373 31.7964C13.6617 31.9244 13.973 31.9665 14.2392 31.984C14.4879 32 14.7832 32 15.08 32V29.0908C14.744 29.0908 14.5621 29.0908 14.4312 29.0821C14.3148 29.0733 14.3381 29.0646 14.4065 29.0908L13.3373 31.7964ZM11.8202 30.4247C12.1432 31.0505 12.6823 31.5378 13.3373 31.7964L14.4065 29.0908L11.8202 30.4247ZM11.4449 28.7097C11.474 29.0064 11.5031 29.2988 11.5438 29.5461C11.5875 29.8079 11.6602 30.1134 11.8202 30.4247L14.4094 29.0922C14.4429 29.1562 14.4356 29.181 14.4167 29.0661C14.3857 28.852 14.361 28.6371 14.3425 28.4217L11.4449 28.7097ZM11.3067 27.3278C11.2151 27.2085 11.2442 27.1532 11.2951 27.4383C11.3431 27.7074 11.3824 28.0886 11.4449 28.7097L14.3396 28.4202C14.2814 27.8471 14.2319 27.3322 14.1578 26.922C14.0865 26.5292 13.9614 26.0128 13.6195 25.5648L11.3067 27.3278ZM11.3067 27.3278L13.6195 25.5648C13.3082 25.1563 12.8943 24.8375 12.4199 24.6407C11.9454 24.444 11.4274 24.3764 10.9183 24.4448L11.3067 27.3278ZM10.2318 28.2078C10.7161 27.8122 11.0114 27.5707 11.2369 27.4151C11.474 27.2507 11.4565 27.3089 11.3067 27.3278L10.9183 24.4448C10.3598 24.5204 9.90593 24.7968 9.57718 25.0266C9.23535 25.2622 8.83533 25.591 8.39022 25.9561L10.2318 28.2078ZM8.75387 29.1533C9.0465 29.0555 9.32189 28.9121 9.56991 28.7286C9.77356 28.5831 10.0019 28.3955 10.2318 28.2078L8.39168 25.9576C8.22587 26.0967 8.05755 26.2311 7.88402 26.3605C7.78947 26.4288 7.80256 26.407 7.87093 26.3838L8.75387 29.1533ZM6.7116 29.0515C7.35761 29.3315 8.08322 29.3676 8.75387 29.1533L7.86802 26.3823L6.7116 29.0515ZM5.33408 27.9635C5.545 28.1744 5.75301 28.3824 5.94211 28.5482C6.14139 28.7228 6.39013 28.9133 6.71306 29.053L7.86802 26.3823C7.93493 26.4114 7.94511 26.4347 7.85783 26.3576C7.69836 26.2118 7.54313 26.0614 7.39236 25.9066L5.33408 27.9635ZM4.03512 26.663L5.33554 27.9635L7.39236 25.9066L6.09194 24.6062L4.03512 26.663ZM2.94707 25.287C3.08526 25.607 3.27581 25.8572 3.45037 26.0579C3.61619 26.2456 3.8242 26.4536 4.03512 26.663L6.09194 24.6062C5.93719 24.4554 5.78682 24.3002 5.64101 24.1407C5.56391 24.0535 5.58719 24.0636 5.61628 24.1306L2.94707 25.287ZM2.84525 23.2447C2.63095 23.9154 2.66712 24.641 2.94707 25.287L5.61628 24.1306L2.84525 23.2447ZM3.79074 21.7668C3.60973 21.9815 3.43605 22.2022 3.26999 22.4287C3.08644 22.6767 2.9431 22.9521 2.84525 23.2447L5.61628 24.1306C5.59301 24.1989 5.57264 24.212 5.63955 24.116C5.71519 24.0098 5.82865 23.8687 6.04248 23.6084L3.79074 21.7668ZM4.66933 20.6919C4.68969 20.542 4.74788 20.5246 4.58351 20.7617C4.42786 20.9871 4.1864 21.2839 3.79074 21.7668L6.04248 23.6084C6.40613 23.1632 6.73633 22.7632 6.97343 22.4214C7.20181 22.0926 7.47818 21.6388 7.55382 21.0802L4.66933 20.6919ZM4.66933 20.6919L7.55382 21.0802C7.62219 20.5712 7.55457 20.0531 7.35785 19.5787C7.16112 19.1042 6.84229 18.6903 6.43377 18.379L4.66933 20.6919ZM3.28745 20.5537C3.91002 20.6162 4.29113 20.6555 4.56023 20.7035C4.84388 20.7544 4.79006 20.7835 4.66933 20.6919L6.43377 18.379C5.98575 18.0372 5.47082 17.9121 5.07516 17.8408C4.66642 17.7681 4.15149 17.7172 3.57692 17.659L3.28745 20.5537ZM1.57392 20.1784C1.8852 20.3384 2.19067 20.4111 2.4525 20.4548C2.69979 20.4955 2.99216 20.526 3.2889 20.5551L3.57692 17.659C3.36146 17.641 3.14803 17.6167 2.93398 17.5863C2.81761 17.5659 2.84234 17.5586 2.9078 17.5921L1.57392 20.1784ZM0.203675 18.6627C0.462204 19.3178 0.949579 19.8568 1.57537 20.1798L2.90925 17.5935L0.203675 18.6627ZM2.96829e-05 16.9201C2.96829e-05 17.2168 2.97373e-05 17.5121 0.0160304 17.7623C0.0334858 18.027 0.0742148 18.3383 0.20513 18.6641L2.90925 17.5921C2.93543 17.6605 2.92671 17.6837 2.91943 17.5674C2.90984 17.3517 2.90644 17.1359 2.90925 16.9201H2.96829e-05ZM2.96829e-05 15.0814V16.9201H2.90925V15.0814H2.96829e-05ZM0.203675 13.3373C0.0941001 13.6262 0.0307739 13.9306 0.0160304 14.2392C-0.00142487 14.4894 2.96829e-05 14.7847 2.96829e-05 15.0829H2.90925C2.90925 14.7454 2.90925 14.5636 2.91943 14.4327C2.92671 14.3163 2.93543 14.3396 2.90925 14.4079L0.203675 13.3373ZM1.57537 11.8231C0.950104 12.1454 0.462797 12.6834 0.203675 13.3373L2.90925 14.4079L1.57537 11.8231ZM3.29036 11.4449C2.99362 11.4754 2.70124 11.5031 2.45396 11.5467C2.19213 11.5904 1.88666 11.6631 1.57537 11.8231L2.90925 14.4079C2.84379 14.4414 2.82052 14.4341 2.93543 14.4152C3.14946 14.3842 3.36435 14.3595 3.57983 14.341L3.29036 11.4449ZM4.67224 11.3082C4.79297 11.2165 4.84679 11.2456 4.56169 11.2965C4.29258 11.3445 3.91148 11.3838 3.29036 11.4464L3.57983 14.341C4.15149 14.2828 4.66787 14.2334 5.07807 14.1592C5.47227 14.0879 5.98866 13.9628 6.43668 13.621L4.67224 11.3082ZM4.67224 11.3082L6.43668 13.621C6.84494 13.3095 7.16348 12.8956 7.35995 12.4211C7.55642 11.9467 7.62381 11.4287 7.55527 10.9198L4.67224 11.3082ZM3.7922 10.2332C4.18785 10.7161 4.42932 11.0129 4.58642 11.2383C4.75079 11.4755 4.6926 11.458 4.67224 11.3082L7.55527 10.9198C7.47964 10.3612 7.20471 9.90883 6.97489 9.57864C6.73778 9.2368 6.40759 8.83679 6.04394 8.39168L3.7922 10.2332ZM2.8467 8.75387C2.95289 9.08844 3.11726 9.35463 3.27145 9.57137C3.41691 9.77501 3.60455 10.0034 3.7922 10.2332L6.04394 8.39168C5.90476 8.22588 5.7704 8.05756 5.64101 7.88402C5.57264 7.78947 5.59592 7.8011 5.61773 7.86947L2.8467 8.75387ZM2.94852 6.71306C2.66894 7.35864 2.63277 8.08367 2.8467 8.75387L5.61773 7.86947L2.94852 6.71306ZM4.03657 5.33554C3.82565 5.54646 3.61765 5.75301 3.45182 5.94211C3.24459 6.17105 3.07474 6.43122 2.94852 6.71306L5.61773 7.86947C5.58864 7.93638 5.56537 7.94657 5.64246 7.85783C5.72974 7.75892 5.85629 7.63091 6.09339 7.39236L4.03657 5.33554ZM5.337 4.03657L4.03657 5.33554L6.09339 7.39236L7.39527 6.09339L5.337 4.03657ZM6.71306 2.94707C6.43113 3.07373 6.17095 3.24407 5.94211 3.45182C5.73445 3.64047 5.53264 3.83548 5.337 4.03657L7.39527 6.09339C7.63237 5.85484 7.76038 5.72828 7.85929 5.64246C7.94657 5.56391 7.93638 5.58719 7.86947 5.61628L6.71306 2.94707ZM8.75533 2.84525C8.08468 2.63095 7.35906 2.66712 6.71306 2.94707L7.86947 5.61628L8.75533 2.84525ZM10.2318 3.79074C10.0019 3.6031 9.77647 3.41691 9.57137 3.27145C9.32344 3.08739 9.04805 2.94355 8.75533 2.84525L7.86947 5.61628C7.8011 5.59446 7.78801 5.57264 7.88402 5.63955C7.9902 5.71665 8.1313 5.83011 8.39168 6.04394L10.2318 3.79074ZM11.3082 4.67078C11.458 4.69115 11.4755 4.74933 11.2383 4.58496C10.895 4.33208 10.5602 4.06768 10.2347 3.7922L8.39168 6.04394C8.83679 6.40759 9.23535 6.73633 9.57718 6.97489C9.90593 7.20326 10.3598 7.47818 10.9183 7.55382L11.3082 4.67078ZM11.3082 4.67078L10.9198 7.55382C11.4288 7.62219 11.9469 7.55457 12.4213 7.35785C12.8958 7.16112 13.3097 6.84229 13.621 6.43377L11.3082 4.67078ZM11.4464 3.2889C11.3838 3.91148 11.3445 4.29258 11.2965 4.56169C11.2456 4.84534 11.2165 4.79152 11.3082 4.67078L13.621 6.43377C13.9628 5.98575 14.0879 5.47082 14.1592 5.07662C14.2319 4.66787 14.2843 4.15149 14.341 3.57837L11.4464 3.2889ZM11.8216 1.57537C11.6839 1.85188 11.5906 2.14839 11.5453 2.45396C11.5045 2.70124 11.4755 2.99362 11.4464 3.29036L14.341 3.57837C14.36 3.36301 14.3843 3.1496 14.4138 2.93543C14.4341 2.81906 14.4414 2.84525 14.4079 2.90925L11.8216 1.57537ZM13.3388 0.203675C12.6837 0.462204 12.1447 0.949579 11.8216 1.57537L14.4079 2.90925L13.3388 0.203675ZM15.0814 2.96829e-05C14.7847 2.96829e-05 14.4894 2.97373e-05 14.2392 0.0160304C13.9306 0.0307739 13.6262 0.0941001 13.3373 0.203675L14.4094 2.90925C14.341 2.93543 14.3178 2.92671 14.4341 2.91943C14.565 2.9107 14.7469 2.90925 15.0829 2.90925L15.0814 2.96829e-05ZM16.9201 2.96829e-05H15.0814V2.90925H16.9201V2.96829e-05ZM18.6627 0.203675C18.3738 0.0941001 18.0694 0.0307739 17.7608 0.0160304C17.5135 -0.00142487 17.2183 2.96829e-05 16.9215 2.96829e-05V2.90925C17.2575 2.90925 17.4394 2.90925 17.5703 2.91943C17.6866 2.92671 17.6619 2.93543 17.5935 2.90925L18.6627 0.203675ZM20.1798 1.57537C19.8568 0.949579 19.3178 0.462204 18.6627 0.203675L17.5935 2.90925L20.1798 1.57537ZM20.3646 16.0007C20.3646 17.1581 19.9048 18.2681 19.0864 19.0864C18.2681 19.9048 17.1581 20.3646 16.0007 20.3646V23.2738C17.9297 23.2738 19.7796 22.5075 21.1436 21.1436C22.5075 19.7796 23.2738 17.9297 23.2738 16.0007H20.3646ZM16.0007 11.6369C17.1581 11.6369 18.2681 12.0967 19.0864 12.915C19.9048 13.7334 20.3646 14.8434 20.3646 16.0007H23.2738C23.2738 14.0718 22.5075 12.2219 21.1436 10.8579C19.7796 9.49396 17.9297 8.72769 16.0007 8.72769V11.6369ZM11.6369 16.0007C11.6369 14.8434 12.0967 13.7334 12.915 12.915C13.7334 12.0967 14.8434 11.6369 16.0007 11.6369V8.72769C14.0718 8.72769 12.2219 9.49396 10.8579 10.8579C9.49396 12.2219 8.72769 14.0718 8.72769 16.0007H11.6369ZM16.0007 20.3646C14.8434 20.3646 13.7334 19.9048 12.915 19.0864C12.0967 18.2681 11.6369 17.1581 11.6369 16.0007H8.72769C8.72769 17.9297 9.49396 19.7796 10.8579 21.1436C12.2219 22.5075 14.0718 23.2738 16.0007 23.2738V20.3646Z" fill="#FFFFF2"/>
</svg>
