<svg width="28" height="32" viewBox="0 0 28 32" fill="none" xmlns="http://www.w3.org/2000/svg">
<path d="M27.8931 13.8439C27.7872 14.0876 27.6078 14.2958 27.3777 14.4424C27.1475 14.5889 26.8768 14.6672 26.5999 14.6672H15.4004V30.6667C15.4004 31.0203 15.2529 31.3594 14.9904 31.6095C14.7279 31.8595 14.3718 32 14.0005 32C13.6292 32 13.2731 31.8595 13.0106 31.6095C12.748 31.3594 12.6006 31.0203 12.6006 30.6667V14.6672H1.40104C1.124 14.6674 0.853122 14.5894 0.6227 14.4429C0.392279 14.2964 0.212675 14.0881 0.106626 13.8443C0.000577466 13.6006 -0.0271478 13.3323 0.0269604 13.0735C0.0810686 12.8148 0.214577 12.5771 0.410585 12.3906L13.01 0.391036C13.14 0.267071 13.2944 0.168729 13.4644 0.101633C13.6343 0.0345357 13.8165 0 14.0005 0C14.1845 0 14.3666 0.0345357 14.5366 0.101633C14.7065 0.168729 14.8609 0.267071 14.9909 0.391036L27.5904 12.3906C27.7861 12.5772 27.9193 12.8149 27.9732 13.0736C28.0271 13.3322 27.9992 13.6003 27.8931 13.8439Z" fill="#FFFFF2"/>
</svg>
