<svg width="28" height="32" viewBox="0 0 28 32" fill="none" xmlns="http://www.w3.org/2000/svg">
<path d="M4.08333 13.7406C3.92862 13.7406 3.78025 13.7972 3.67085 13.8979C3.56146 13.9986 3.5 14.1352 3.5 14.2777V28.2407C3.5 28.5372 3.76133 28.7778 4.08333 28.7778H23.9167C24.0714 28.7778 24.2197 28.7212 24.3291 28.6205C24.4385 28.5197 24.5 28.3831 24.5 28.2407V14.2777C24.5 14.1352 24.4385 13.9986 24.3291 13.8979C24.2197 13.7972 24.0714 13.7406 23.9167 13.7406H21.5833C21.1192 13.7406 20.6741 13.5709 20.3459 13.2687C20.0177 12.9666 19.8333 12.5568 19.8333 12.1295C19.8333 11.7022 20.0177 11.2924 20.3459 10.9903C20.6741 10.6881 21.1192 10.5184 21.5833 10.5184H23.9167C26.1707 10.5184 28 12.2025 28 14.2777V28.2407C28 29.2377 27.5698 30.1939 26.804 30.8989C26.0382 31.6039 24.9996 32 23.9167 32H4.08333C3.00037 32 1.96175 31.6039 1.19598 30.8989C0.430207 30.1939 0 29.2377 0 28.2407V14.2777C0 12.2025 1.82933 10.5184 4.08333 10.5184H6.41667C6.8808 10.5184 7.32591 10.6881 7.6541 10.9903C7.98229 11.2924 8.16667 11.7022 8.16667 12.1295C8.16667 12.5568 7.98229 12.9666 7.6541 13.2687C7.32591 13.5709 6.8808 13.7406 6.41667 13.7406H4.08333ZM13.587 0.157776C13.6412 0.107763 13.7056 0.0680836 13.7764 0.0410098C13.8473 0.013936 13.9233 0 14 0C14.0767 0 14.1527 0.013936 14.2236 0.0410098C14.2944 0.0680836 14.3588 0.107763 14.413 0.157776L21.1703 6.37886C21.2521 6.45397 21.3078 6.54974 21.3304 6.65405C21.353 6.75835 21.3415 6.86648 21.2972 6.96473C21.253 7.06298 21.1781 7.14692 21.082 7.20592C20.9858 7.26492 20.8729 7.29631 20.7573 7.29612H15.75V19.6481C15.75 20.0754 15.5656 20.4852 15.2374 20.7873C14.9092 21.0894 14.4641 21.2592 14 21.2592C13.5359 21.2592 13.0908 21.0894 12.7626 20.7873C12.4344 20.4852 12.25 20.0754 12.25 19.6481V7.29612H7.24267C7.12714 7.29631 7.01416 7.26492 6.91804 7.20592C6.82192 7.14692 6.74699 7.06298 6.70275 6.96473C6.65851 6.86648 6.64696 6.75835 6.66956 6.65405C6.69215 6.54974 6.74788 6.45397 6.82967 6.37886L13.587 0.157776Z" fill="#FFFFF2"/>
</svg>
