<svg width="34" height="33" viewBox="0 0 34 33" fill="none" xmlns="http://www.w3.org/2000/svg">
<rect width="34" height="32.5" rx="16.25" fill="#FFFFF2"/>
<path d="M7 7V16.5C7 18.0167 7.3 19.4167 7.9 20.7C8.5 21.9833 9.325 23.0833 10.375 24C9.94167 23.3667 9.60433 22.671 9.363 21.913C9.12167 21.155 9.00067 20.3507 9 19.5C9 18.2667 9.25433 16.979 9.763 15.637C10.2717 14.295 11.1173 12.741 12.3 10.975L7 7ZM17 7.925C14.7833 10.5917 13.2293 12.8877 12.338 14.813C11.4467 16.7383 11.0007 18.3007 11 19.5C11 21.1667 11.5833 22.5833 12.75 23.75C13.9167 24.9167 15.3333 25.5 17 25.5C18.6667 25.5 20.0833 24.9167 21.25 23.75C22.4167 22.5833 23 21.1667 23 19.5C23 18.3 22.55 16.7293 21.65 14.788C20.75 12.8467 19.2 10.5597 17 7.925ZM27 7L21.7 10.975C22.8833 12.7417 23.7293 14.296 24.238 15.638C24.7467 16.98 25.0007 18.2673 25 19.5C25 20.35 24.879 21.1543 24.637 21.913C24.395 22.6717 24.058 23.3673 23.626 24C24.676 23.0833 25.501 21.9833 26.101 20.7C26.701 19.4167 27.0007 18.0167 27 16.5V7Z" fill="#8D6CCF"/>
</svg>
